<?xml version="1.0" standalone="no"?>
<!DOCTYPE svg PUBLIC "-//W3C//DTD SVG 20010904//EN"
 "http://www.w3.org/TR/2001/REC-SVG-20010904/DTD/svg10.dtd">
<svg version="1.0" xmlns="http://www.w3.org/2000/svg"
 width="400.000000pt" height="400.000000pt" viewBox="0 0 400.000000 400.000000"
 preserveAspectRatio="xMidYMid meet">
<metadata>
Created by potrace 1.11, written by Peter Selinger 2001-2013
</metadata>
<g transform="translate(0.000000,400.000000) scale(0.100000,-0.100000)"
fill="#000000" stroke="none">
<path d="M1178 3989 c-2 -5 -35 -11 -74 -12 -58 -2 -79 -8 -112 -29 -45 -31
-77 -97 -70 -148 4 -25 1 -30 -17 -30 -38 0 -107 -44 -126 -80 -23 -42 -24
-95 -4 -134 9 -16 14 -29 13 -30 -44 -16 -104 -57 -121 -80 -18 -25 -22 -44
-21 -98 0 -64 -1 -67 -28 -79 -42 -17 -98 -84 -98 -118 0 -15 11 -45 25 -65
l26 -38 -31 -34 c-49 -56 -64 -94 -64 -161 -1 -55 2 -65 28 -92 16 -17 38 -33
48 -37 17 -5 17 -8 -6 -35 -36 -43 -48 -94 -32 -133 13 -32 69 -86 88 -86 6 0
-6 -18 -25 -39 -49 -54 -62 -104 -39 -151 9 -19 31 -42 48 -50 28 -14 29 -17
17 -40 -31 -61 -7 -122 56 -141 27 -8 43 -20 53 -43 9 -17 36 -58 61 -91 24
-33 63 -97 85 -141 50 -99 82 -128 133 -121 l37 5 30 -69 c55 -124 191 -307
366 -494 l103 -110 11 -122 c18 -185 16 -241 -10 -279 -41 -59 -132 -109 -276
-150 -34 -9 -60 -19 -58 -22 3 -2 25 3 50 11 39 13 46 14 57 1 14 -17 14 -18
-33 -37 -21 -9 -38 -21 -38 -27 0 -6 35 -46 78 -88 152 -152 336 -212 650
-212 301 0 536 72 668 204 33 34 68 75 77 93 l17 32 -35 12 c-34 12 -45 32
-26 43 5 3 26 -1 46 -10 20 -8 41 -14 47 -12 5 2 -17 12 -49 23 -82 27 -166
70 -207 105 -53 47 -59 77 -46 237 6 76 13 151 17 168 3 19 42 69 109 140 175
186 311 370 365 493 l30 67 43 0 c24 0 51 7 60 15 10 8 38 56 64 107 53 107
90 153 126 153 60 0 113 105 87 173 -19 51 -13 81 23 116 53 52 63 83 38 125
l-21 35 30 32 c60 64 96 169 79 228 -6 22 -5 41 6 66 30 72 3 187 -58 243
l-25 23 23 47 c13 26 24 66 24 90 0 49 -29 113 -63 139 -21 15 -23 21 -14 55
20 78 -17 158 -88 189 -40 18 -44 23 -39 45 10 38 -15 109 -52 153 -38 44
-132 96 -193 106 -36 6 -39 9 -45 47 -10 59 -58 104 -122 114 -30 4 -54 14
-62 25 -13 18 -46 19 -812 19 -551 0 -799 -3 -802 -11z m555 -1456 c21 -13 48
-23 58 -20 32 9 59 -49 59 -127 l0 -66 -36 19 c-20 11 -52 38 -72 61 l-36 42
35 -16 34 -17 -35 31 c-99 87 -349 92 -509 10 -51 -25 -54 -36 -5 -15 51 21
53 19 13 -10 -19 -14 -38 -31 -44 -38 -5 -7 -38 -27 -72 -44 l-63 -31 0 51 c1
67 30 131 71 156 29 18 102 34 199 45 19 2 109 2 199 -1 153 -4 166 -6 204
-30z m1059 13 c32 -7 69 -21 83 -30 37 -24 65 -90 65 -153 l0 -53 -62 32 c-35
17 -67 37 -73 45 -5 7 -25 24 -44 38 -40 29 -38 31 13 10 49 -21 46 -10 -5 15
-160 82 -410 77 -509 -10 l-35 -31 34 17 34 16 -34 -42 c-19 -22 -51 -50 -71
-61 l-38 -19 0 66 c0 50 5 75 21 100 11 19 25 32 30 29 5 -4 30 4 56 16 28 13
80 26 123 30 105 10 344 1 412 -15z m-1220 -106 c94 -27 180 -131 180 -219 -1
-85 -43 -140 -147 -188 -50 -23 -73 -28 -140 -28 -67 0 -89 4 -135 27 -72 35
-106 72 -122 131 -12 45 -11 51 12 95 34 65 128 156 182 175 51 18 119 21 170
7z m1022 -6 c58 -20 150 -107 186 -176 23 -44 24 -50 12 -95 -16 -59 -50 -96
-122 -131 -46 -23 -68 -27 -135 -27 -67 0 -90 5 -140 28 -104 48 -146 103
-147 188 0 39 7 61 29 96 70 114 193 159 317 117z"/>
<path d="M1508 2533 c7 -3 16 -2 19 1 4 3 -2 6 -13 5 -11 0 -14 -3 -6 -6z"/>
<path d="M2478 2533 c7 -3 16 -2 19 1 4 3 -2 6 -13 5 -11 0 -14 -3 -6 -6z"/>
<path d="M1422 2393 c-18 -9 -45 -32 -60 -51 -23 -30 -27 -45 -27 -101 0 -53
5 -72 23 -99 74 -103 242 -91 296 21 9 19 16 57 16 84 l-1 48 -15 -27 c-30
-57 -114 -19 -114 50 0 45 37 62 77 38 24 -15 24 -13 -5 12 -51 45 -130 55
-190 25z m18 -163 c0 -28 44 -70 72 -70 19 0 20 2 8 11 -12 9 -10 10 9 6 19
-5 25 0 34 23 11 28 11 28 44 12 18 -9 33 -19 33 -24 0 -4 -14 -23 -31 -43
-54 -61 -121 -66 -201 -14 -40 26 -45 37 -40 87 4 29 7 32 38 32 28 0 34 -4
34 -20z"/>
<path d="M2424 2396 c-77 -34 -117 -150 -79 -230 54 -114 216 -129 292 -29 21
27 28 49 30 96 4 61 3 61 -12 35 -32 -56 -115 -19 -115 50 0 45 37 62 77 38
24 -15 24 -13 -5 12 -49 43 -126 55 -188 28z m16 -166 c0 -28 44 -70 72 -70
19 0 20 2 8 11 -12 9 -10 10 8 6 18 -4 26 0 35 21 6 15 12 28 13 30 5 9 64
-30 64 -42 0 -25 -56 -74 -96 -85 -45 -12 -72 -6 -131 29 -45 27 -50 37 -45
88 4 29 7 32 38 32 28 0 34 -4 34 -20z"/>
<path d="M1158 403 c7 -3 16 -2 19 1 4 3 -2 6 -13 5 -11 0 -14 -3 -6 -6z"/>
<path d="M2808 403 c7 -3 16 -2 19 1 4 3 -2 6 -13 5 -11 0 -14 -3 -6 -6z"/>
<path d="M1099 396 c-2 -3 -99 -19 -214 -36 -326 -48 -463 -91 -583 -181 -49
-37 -142 -149 -142 -170 0 -20 17 -6 49 42 104 153 272 230 619 284 171 27
335 62 296 64 -11 1 -23 -1 -25 -3z"/>
<path d="M2848 393 c6 -2 18 -2 25 0 6 3 1 5 -13 5 -14 0 -19 -2 -12 -5z"/>
<path d="M2891 386 c3 -3 88 -19 190 -36 245 -41 365 -73 476 -126 95 -45 187
-120 234 -189 13 -19 30 -35 37 -35 23 0 -7 41 -88 122 -60 59 -97 86 -163
117 -127 62 -208 80 -652 147 -22 4 -37 4 -34 0z"/>
</g>
</svg>
