<?xml version="1.0" standalone="no"?>
<!DOCTYPE svg PUBLIC "-//W3C//DTD SVG 20010904//EN"
 "http://www.w3.org/TR/2001/REC-SVG-20010904/DTD/svg10.dtd">
<svg version="1.0" xmlns="http://www.w3.org/2000/svg"
 width="404.000000pt" height="404.000000pt" viewBox="0 0 404.000000 404.000000"
 preserveAspectRatio="xMidYMid meet">
<metadata>
Created by potrace 1.11, written by Peter Selinger 2001-2013
</metadata>
<g transform="translate(0.000000,404.000000) scale(0.100000,-0.100000)"
fill="#000000" stroke="none">
<path d="M2477 3830 c-39 -93 -54 -260 -33 -358 18 -88 45 -141 166 -337 201
-323 284 -569 283 -840 -1 -216 -55 -364 -184 -500 -66 -69 -177 -145 -212
-145 -11 0 -24 13 -33 35 -13 31 -13 39 1 64 22 43 59 185 49 188 -38 14 -37
20 39 174 88 177 116 266 124 396 7 104 -7 189 -41 267 -75 168 -316 371 -514
433 -71 22 -95 25 -175 21 -99 -5 -149 -19 -267 -75 -60 -28 -93 -54 -165
-127 -144 -145 -207 -289 -207 -471 0 -154 50 -319 160 -524 34 -62 42 -85 32
-91 -10 -6 -7 -26 13 -91 13 -46 30 -98 38 -116 12 -29 11 -34 -14 -67 -69
-90 -211 -63 -375 71 -101 82 -199 247 -227 379 -19 91 -19 246 1 342 37 179
106 295 313 521 77 84 157 178 177 208 72 108 100 233 73 324 -11 36 -73 108
-84 97 -3 -2 -10 -40 -15 -84 -19 -153 -55 -240 -126 -308 -30 -29 -44 -51
-44 -69 0 -20 -25 -53 -102 -134 -56 -60 -111 -109 -121 -109 -27 -2 -88 -65
-85 -89 1 -11 -25 -61 -59 -113 -34 -52 -72 -118 -84 -148 -15 -35 -29 -54
-40 -54 -22 0 -34 -17 -46 -67 -8 -31 -7 -47 2 -60 10 -14 9 -36 -2 -108 -9
-55 -12 -121 -8 -169 5 -66 3 -80 -11 -90 -14 -11 -15 -19 -3 -69 10 -46 17
-59 35 -63 15 -4 29 -22 44 -57 29 -67 81 -148 136 -213 24 -28 44 -60 44 -71
0 -11 18 -34 41 -53 34 -27 45 -31 59 -22 14 9 37 4 107 -23 48 -19 135 -49
193 -67 113 -36 128 -51 75 -78 -22 -11 -63 -15 -155 -15 -110 1 -133 4 -192
27 -99 38 -174 85 -243 154 -79 80 -113 147 -170 334 -48 162 -74 217 -131
280 -85 93 -231 108 -318 31 -21 -19 -60 -91 -52 -98 3 -3 19 5 35 17 65 46
148 35 229 -30 72 -56 112 -148 135 -312 5 -30 2 -37 -15 -41 -19 -5 -20 -11
-14 -59 8 -55 20 -78 41 -78 8 0 21 -24 30 -52 10 -29 31 -80 48 -112 18 -33
30 -71 29 -85 -4 -32 56 -94 84 -89 11 1 35 -9 54 -24 46 -34 125 -73 177 -87
25 -7 43 -18 46 -30 3 -13 18 -20 54 -25 55 -7 83 -1 83 19 0 8 22 15 63 19
34 4 111 18 171 32 60 13 113 24 117 24 21 0 6 -45 -25 -75 -48 -45 -110 -60
-241 -59 -127 1 -191 12 -368 61 -217 59 -333 39 -389 -70 -16 -30 -22 -60
-22 -108 0 -90 34 -157 134 -262 l79 -82 -20 65 c-24 80 -34 166 -25 214 5 28
12 36 29 36 25 0 86 34 103 58 14 19 58 12 180 -30 62 -22 94 -39 100 -52 12
-28 98 -54 124 -38 14 9 34 9 77 1 65 -12 152 -5 214 16 23 8 45 12 51 9 28
-17 125 54 114 83 -10 26 154 277 198 304 36 22 62 24 68 7 9 -28 0 -299 -11
-312 -16 -19 25 -116 49 -116 11 0 29 -18 44 -45 15 -24 51 -71 82 -104 31
-33 53 -65 50 -70 -11 -18 7 -42 45 -61 43 -22 75 -26 81 -9 3 9 18 7 53 -4
43 -14 144 -34 273 -53 18 -3 32 -11 32 -19 0 -19 10 -24 67 -34 38 -8 51 -6
65 6 33 29 155 -24 239 -104 l57 -54 -5 48 c-7 73 -55 164 -117 220 -72 66
-144 102 -323 162 -187 62 -262 99 -322 159 -69 69 -96 131 -96 219 0 40 5 77
10 82 7 7 24 -7 53 -44 23 -31 69 -74 101 -98 40 -28 60 -50 63 -66 4 -33 90
-71 119 -52 16 9 30 8 71 -4 28 -8 87 -18 132 -22 47 -3 86 -12 95 -20 7 -8
20 -12 28 -9 8 3 30 6 49 6 27 0 37 5 45 24 7 14 26 28 50 35 22 7 72 27 111
46 80 39 96 42 104 20 7 -18 88 -49 113 -42 40 10 81 -70 81 -158 0 -33 -10
-84 -25 -127 -14 -39 -23 -73 -22 -75 6 -6 117 155 144 209 28 56 40 134 29
193 -10 54 -68 112 -129 130 -66 20 -92 19 -228 -5 -267 -48 -318 -53 -408
-41 -99 13 -180 48 -211 92 -43 59 11 66 121 15 41 -19 91 -37 112 -41 21 -4
47 -17 57 -28 16 -16 28 -19 70 -15 27 3 58 12 68 20 9 8 39 21 65 28 26 7 72
27 101 45 42 25 58 30 72 22 15 -8 25 -3 57 33 27 31 37 50 33 64 -7 29 84
215 105 216 21 0 32 14 52 67 15 39 15 43 0 58 -14 15 -12 24 27 116 36 84 46
99 65 99 30 0 80 72 77 110 -2 22 7 35 42 64 54 44 128 82 179 91 20 4 37 12
37 17 0 6 -16 25 -35 43 -65 62 -186 66 -281 10 -77 -45 -132 -130 -199 -305
-94 -247 -209 -397 -363 -472 -64 -32 -72 -33 -182 -33 -106 0 -119 2 -167 27
-83 44 -81 58 13 78 66 14 161 60 206 99 20 17 47 31 60 31 29 0 81 66 77 97
-2 10 14 54 35 97 21 43 47 116 59 161 16 61 26 84 42 91 16 7 21 20 23 62 2
32 -2 60 -9 68 -8 9 -14 56 -15 121 -2 58 -8 139 -14 180 -10 67 -10 76 6 87
16 12 16 16 -1 66 -11 33 -24 54 -36 57 -12 3 -25 27 -39 68 -11 34 -40 101
-64 149 -25 49 -42 95 -39 106 6 24 -52 110 -75 110 -26 1 -235 305 -237 344
-1 38 -41 106 -61 106 -27 0 -68 133 -83 270 -4 41 -10 68 -14 60z m-655
-1965 c37 -21 65 -42 62 -46 -9 -15 -112 -21 -148 -9 -47 15 -66 44 -66 98 l0
44 43 -25 c23 -13 72 -41 109 -62z m493 18 c-10 -56 -47 -83 -114 -83 -53 0
-98 16 -76 26 6 3 51 29 100 58 50 30 92 50 94 45 1 -6 0 -26 -4 -46z m159
-28 c-21 -82 -38 -96 -29 -25 9 70 23 106 35 94 6 -6 3 -32 -6 -69z m-915 -18
c24 -66 27 -87 10 -70 -6 6 -20 42 -30 79 -22 79 -11 74 20 -9z"/>
</g>
</svg>
