<?xml version="1.0" standalone="no"?>
<!DOCTYPE svg PUBLIC "-//W3C//DTD SVG 20010904//EN"
 "http://www.w3.org/TR/2001/REC-SVG-20010904/DTD/svg10.dtd">
<svg version="1.0" xmlns="http://www.w3.org/2000/svg"
 width="560.000000pt" height="560.000000pt" viewBox="0 0 560.000000 560.000000"
 preserveAspectRatio="xMidYMid meet">
<metadata>
Created by potrace 1.14, written by Peter Selinger 2001-2017
</metadata>
<g transform="translate(0.000000,560.000000) scale(0.100000,-0.100000)"
fill="#000000" stroke="none">
<path d="M2630 5595 c-8 -2 -49 -9 -90 -15 -98 -15 -257 -55 -321 -80 -31 -13
-74 -20 -113 -20 -110 0 -242 -57 -316 -135 -16 -17 -34 -25 -55 -25 -46 0
-210 -43 -278 -74 -190 -84 -371 -265 -479 -477 -23 -47 -48 -79 -83 -106
-128 -101 -202 -246 -212 -413 -4 -59 -11 -95 -25 -117 -117 -195 -178 -422
-176 -656 1 -138 9 -204 38 -319 13 -50 21 -121 23 -205 3 -106 8 -139 29
-194 33 -89 72 -154 128 -214 26 -27 66 -86 89 -130 166 -322 467 -515 801
-515 65 0 91 -4 100 -15 22 -27 115 -82 183 -109 93 -37 207 -45 313 -21 43 9
91 24 107 31 l27 15 0 -89 0 -89 -142 -6 c-219 -9 -391 -53 -579 -146 -415
-207 -706 -597 -783 -1050 -10 -60 -16 -154 -16 -258 l0 -163 2001 0 2002 0
-6 188 c-8 277 -49 442 -164 663 -166 322 -473 583 -818 697 -156 52 -277 71
-452 72 l-83 0 0 90 0 91 28 -15 c42 -21 165 -46 229 -46 116 0 259 51 348
124 39 32 43 33 155 39 125 6 149 9 225 34 230 74 428 249 555 493 18 36 58
92 87 125 103 114 156 266 152 435 -1 59 5 109 19 165 12 44 24 94 27 110 12
56 15 320 5 390 -23 155 -81 325 -156 455 -25 45 -32 70 -37 135 -13 178 -90
327 -221 425 -39 30 -58 53 -71 87 -10 25 -44 85 -76 133 -161 240 -405 398
-659 427 -45 5 -63 13 -100 46 -25 22 -78 55 -118 75 -62 29 -88 36 -170 41
-54 4 -103 10 -110 15 -21 13 -175 56 -277 77 -76 16 -145 22 -285 24 -102 2
-192 2 -200 0z"/>
</g>
</svg>
